<?xml version="1.0" encoding="UTF-8" standalone="no"?>
<svg
   xmlns:dc="http://purl.org/dc/elements/1.1/"
   xmlns:cc="http://creativecommons.org/ns#"
   xmlns:rdf="http://www.w3.org/1999/02/22-rdf-syntax-ns#"
   xmlns:svg="http://www.w3.org/2000/svg"
   xmlns="http://www.w3.org/2000/svg"
   viewBox="0 0 500 999.99996"
   height="1000"
   width="500"
   xml:space="preserve"
   id="svg2"
   version="1.1"><metadata
     id="metadata8"><rdf:RDF><cc:Work
         rdf:about=""><dc:format>image/svg+xml</dc:format><dc:type
           rdf:resource="http://purl.org/dc/dcmitype/StillImage" /><dc:title></dc:title></cc:Work></rdf:RDF></metadata><defs
     id="defs6"><clipPath
       id="clipPath36"
       clipPathUnits="userSpaceOnUse"><path
         id="path34"
         d="M 0.165,60.445 H 375.001 V 812 H 0.165 Z" /></clipPath><clipPath
       id="clipPath152"
       clipPathUnits="userSpaceOnUse"><path
         id="path150"
         d="M 0,812 H 375 V 0 H 0 Z" /></clipPath><clipPath
       id="clipPath180"
       clipPathUnits="userSpaceOnUse"><path
         id="path178"
         d="M 0,812 H 375 V 0 H 0 Z" /></clipPath><clipPath
       id="clipPath188"
       clipPathUnits="userSpaceOnUse"><path
         id="path186"
         d="m 299.766,808.108 h 7.554 v -13.021 h -7.554 z" /></clipPath><clipPath
       id="clipPath208"
       clipPathUnits="userSpaceOnUse"><path
         id="path206"
         d="M 0,812 H 375 V 0 H 0 Z" /></clipPath><clipPath
       id="clipPath224"
       clipPathUnits="userSpaceOnUse"><path
         id="path222"
         d="M 0,812 H 375 V 0 H 0 Z" /></clipPath><clipPath
       id="clipPath252"
       clipPathUnits="userSpaceOnUse"><path
         id="path250"
         d="m 866.938,812 h -375 V 60.445 h 375 z" /></clipPath><clipPath
       id="clipPath332"
       clipPathUnits="userSpaceOnUse"><path
         id="path330"
         d="M 0,812 H 375 V 0 H 0 Z" /></clipPath><clipPath
       id="clipPath354"
       clipPathUnits="userSpaceOnUse"><path
         id="path352"
         d="M 0,812 H 375 V 0 H 0 Z" /></clipPath><clipPath
       id="clipPath402"
       clipPathUnits="userSpaceOnUse"><path
         id="path400"
         d="M 0,812 H 375 V 0 H 0 Z" /></clipPath><clipPath
       id="clipPath426"
       clipPathUnits="userSpaceOnUse"><path
         id="path424"
         d="M 0,812 H 375 V 0 H 0 Z" /></clipPath><clipPath
       id="clipPath442"
       clipPathUnits="userSpaceOnUse"><path
         id="path440"
         d="M 0,812 H 375 V 0 H 0 Z" /></clipPath></defs><g
     transform="matrix(1.3333333,0,0,-1.3333333,0,999.99995)"
     id="g10"><path
       id="path12"
       style="fill:#cccccc;fill-opacity:1;fill-rule:nonzero;stroke:none"
       d="M 0,-3.7500001e-5 H 374.836 V 751.55496 H 0 Z" /><path
       id="path14"
       style="fill:#dedede;fill-opacity:1;fill-rule:nonzero;stroke:none"
       d="M 0,-3.7500001e-5 H 374.836 V 751.55496 H 0 Z" /><g
       transform="translate(355.6872,465.0399)"
       id="g16"><path
         id="path18"
         style="fill:#ffffff;fill-opacity:1;fill-rule:nonzero;stroke:none"
         d="M 0,0 19.313,-8.135 V 48.451 Z" /></g><g
       transform="translate(0.1647,197.1445)"
       id="g20"><path
         id="path22"
         style="fill:#ffffff;fill-opacity:1;fill-rule:nonzero;stroke:none"
         d="m 0,0 v -34.258 l 374.836,302.249 v 34.257 z" /></g><path
       id="path24"
       style="fill:#ffffff;fill-opacity:1;fill-rule:nonzero;stroke:none"
       d="M 355.534,60.445 H 375 V 812 h -19.466 z" /><g
       transform="translate(0.1647,490.6496)"
       id="g26"><path
         id="path28"
         style="fill:#ffffff;fill-opacity:1;fill-rule:nonzero;stroke:none"
         d="M 0,0 V -26.699 H 374.836 V 0 Z" /></g><g
       transform="translate(-0.165,-60.445038)"
       id="g30"><g
         clip-path="url(#clipPath36)"
         id="g32"><g
           transform="translate(368.8448,556.0082)"
           id="g38"><path
             id="path40"
             style="fill:#ffffff;fill-opacity:1;fill-rule:evenodd;stroke:none"
             d="m 0,0 c 43.341,0 78.475,-35.24 78.475,-78.708 0,-43.469 -35.134,-78.708 -78.475,-78.708 -43.341,0 -78.474,35.239 -78.474,78.708 C -78.474,-35.24 -43.341,0 0,0" /></g><g
           transform="translate(368.8448,530.3403)"
           id="g42"><path
             id="path44"
             style="fill:#d2d2d2;fill-opacity:1;fill-rule:evenodd;stroke:none"
             d="m 0,0 c 29.206,0 52.883,-23.747 52.883,-53.041 0,-29.292 -23.677,-53.039 -52.883,-53.039 -29.205,0 -52.883,23.747 -52.883,53.039 C -52.883,-23.747 -29.205,0 0,0" /></g><g
           transform="translate(205.1807,328.2016)"
           id="g46"><path
             id="path48"
             style="fill:#ffffff;fill-opacity:1;fill-rule:evenodd;stroke:none"
             d="M 0,0 14.961,22.095 -292.414,157.846 -307.375,135.75 Z" /></g><g
           transform="translate(368.7266,601.308)"
           id="g50"><path
             id="path52"
             style="fill:#ffffff;fill-opacity:1;fill-rule:evenodd;stroke:none"
             d="M 0,0 0.766,26.7 -522.249,131.238 V 104.386 Z" /></g><g
           transform="translate(65.5245,676.7265)"
           id="g54"><path
             id="path56"
             style="fill:#ffffff;fill-opacity:1;fill-rule:evenodd;stroke:none"
             d="M 0,0 22.221,-12.528 161.408,142.565 H 127.946 Z" /></g><g
           transform="translate(52.6807,482.2372)"
           id="g58"><path
             id="path60"
             style="fill:#ffffff;fill-opacity:1;fill-rule:evenodd;stroke:none"
             d="M 0,0 23.107,-13.277 39.641,187.8 16.534,201.079 Z" /></g><g
           transform="translate(88.7408,581.2382)"
           id="g62"><path
             id="path64"
             style="fill:#ffffff;fill-opacity:1;fill-rule:evenodd;stroke:none"
             d="M 0,0 -2.277,29.752 -190.876,29.75 -219.034,-0.002 Z" /></g><g
           transform="translate(374.4776,573.2221)"
           id="g66"><path
             id="path68"
             style="fill:#ffffff;fill-opacity:1;fill-rule:evenodd;stroke:none"
             d="m 0,0 3.293,30.205 -306.105,7.974 -3.29,-30.208 z" /></g><g
           transform="translate(136.9537,471.8193)"
           id="g70"><path
             id="path72"
             style="fill:#ffffff;fill-opacity:1;fill-rule:evenodd;stroke:none"
             d="M 0,0 29.277,5.312 28.268,117.173 -1.074,108.649 Z" /></g><g
           transform="translate(231.2969,474.8715)"
           id="g74"><path
             id="path76"
             style="fill:#ffffff;fill-opacity:1;fill-rule:evenodd;stroke:none"
             d="M 0,0 29.275,5.312 28.267,117.173 -1.075,108.651 Z" /></g><g
           transform="translate(140.4771,735.6157)"
           id="g78"><path
             id="path80"
             style="fill:#ffffff;fill-opacity:1;fill-rule:evenodd;stroke:none"
             d="M 0,0 19.025,23.646 -293.999,76.474 V 49.616 Z" /></g><g
           transform="translate(27.4356,773.6943)"
           id="g82"><path
             id="path84"
             style="fill:#ffffff;fill-opacity:1;fill-rule:evenodd;stroke:none"
             d="M 0,0 27.994,-10.102 59.443,45.597 H 25.693 Z" /></g><g
           transform="translate(374.8975,204.2172)"
           id="g86"><path
             id="path88"
             style="fill:#ffffff;fill-opacity:1;fill-rule:evenodd;stroke:none"
             d="m 0,0 -1.138,26.686 -268.761,38.466 1.137,-26.687 z" /></g><g
           transform="translate(377.9385,106.5395)"
           id="g90"><path
             id="path92"
             style="fill:#ffffff;fill-opacity:1;fill-rule:evenodd;stroke:none"
             d="m 0,0 -1.136,26.687 -378.321,50.675 1.139,-26.686 z" /></g><g
           transform="translate(69.6075,156.6332)"
           id="g94"><path
             id="path96"
             style="fill:#ffffff;fill-opacity:1;fill-rule:evenodd;stroke:none"
             d="M 0,0 33.635,-9.898 138.714,85.064 105.08,94.963 Z" /></g><g
           transform="translate(484.4571,106.5405)"
           id="g98"><path
             id="path100"
             style="fill:#ffffff;fill-opacity:1;fill-rule:evenodd;stroke:none"
             d="m 0,0 -1.139,26.686 -113.55,-4.267 1.136,-26.687 z" /></g><g
           transform="translate(475.3262,258.0834)"
           id="g102"><path
             id="path104"
             style="fill:#ffffff;fill-opacity:1;fill-rule:evenodd;stroke:none"
             d="m 0,0 -1.137,37.126 -110.509,-53.379 1.139,-37.126 z" /></g><g
           transform="translate(81.2715,57.5502)"
           id="g106"><path
             id="path108"
             style="fill:#ffffff;fill-opacity:1;fill-rule:evenodd;stroke:none"
             d="M 0,0 26.562,91.713 0.134,103.29 -29.782,0 Z" /></g><g
           transform="translate(373.6856,326.4555)"
           id="g110"><path
             id="path112"
             style="fill:#ffffff;fill-opacity:1;fill-rule:evenodd;stroke:none"
             d="m 0,0 6.977,29.412 -187.593,0.057 -3.816,-29.511 z" /></g><g
           transform="translate(105.9024,248.1488)"
           id="g114"><path
             id="path116"
             style="fill:#d2d2d2;fill-opacity:1;fill-rule:evenodd;stroke:none"
             d="m 0,0 50.896,-12.716 -70.096,-63.348 -64.428,8.63 z" /></g><g
           transform="translate(-94.4213,581.2363)"
           id="g118"><path
             id="path120"
             style="fill:#d2d2d2;fill-opacity:1;fill-rule:evenodd;stroke:none"
             d="M 0,0 -59.101,-65.855 V -90.586 H 147.793 L 155.369,1.54 Z" /></g><g
           transform="translate(165.3135,578.6689)"
           id="g122"><path
             id="path124"
             style="fill:#cccccc;fill-opacity:1;fill-rule:evenodd;stroke:none"
             d="M 0,0 0.793,-88.019 H 65.826 L 64.972,-1.691 Z" /></g><g
           transform="translate(103.0572,681.2626)"
           id="g126"><path
             id="path128"
             style="fill:#cccccc;fill-opacity:1;fill-rule:evenodd;stroke:none"
             d="m 0,0 59.929,66.777 108.4,-20.783 -40.646,-71.515 z" /></g><g
           transform="translate(355.1788,604.0161)"
           id="g130"><path
             id="path132"
             style="fill:#cccccc;fill-opacity:1;fill-rule:evenodd;stroke:none"
             d="m 0,0 -267.711,6.974 3.763,45.782 z" /></g><g
           transform="translate(-155.5873,218.7494)"
           id="g134"><path
             id="path136"
             style="fill:#ffffff;fill-opacity:1;fill-rule:evenodd;stroke:none"
             d="m 0,0 v -31.466 l 275.606,186.59 -10.045,24.663 z" /></g><g
           transform="translate(75.6094,206.4428)"
           id="g138"><path
             id="path140"
             style="fill:#ffffff;fill-opacity:1;fill-rule:evenodd;stroke:none"
             d="m 0,0 c 14.488,-27.713 30.625,-54.654 43.287,-83.042 9.679,-21.698 18.303,-43.687 25.88,-65.851 H -83.157 c 1.93,6.463 3.63,12.902 5.089,19.225 6.764,29.315 11.61,71.63 -0.694,103.871 -38.839,63.246 -87.971,119.521 -146.186,166.752 l -6.249,103.422 c 86.726,-58.678 159.63,-133.071 215.874,-219.584 l 3.707,0.864 L -0.178,0.402 C -0.118,0.269 -0.059,0.134 0,0" /></g><g
           transform="translate(50.2999,199.6518)"
           id="g142"><path
             id="path144"
             style="fill:#c3c3c3;fill-opacity:1;fill-rule:nonzero;stroke:none"
             d="m 0,0 c 0.17,-0.375 0.335,-0.753 0.502,-1.13 16.208,-26.855 30.482,-54.331 42.888,-82.143 8.687,-19.478 16.453,-39.121 23.326,-58.829 H 33.708 c -5.616,15.811 -11.839,31.573 -18.684,47.226 -0.912,-15.773 -3.174,-31.663 -6.522,-47.226 h -36.206 c 0.759,2.918 1.48,5.853 2.161,8.801 9.895,42.885 11.125,87.919 -3.223,122.697 -42.914,70.539 -100.059,136.425 -172.893,191.797 l -2.299,38.055 C -116.821,157.237 -49.553,81.483 -0.162,-0.037 Z" /></g></g></g></g></svg>