<?xml version="1.0" encoding="UTF-8" standalone="no"?>
<!-- Created with Inkscape (http://www.inkscape.org/) -->

<svg
   xmlns:dc="http://purl.org/dc/elements/1.1/"
   xmlns:cc="http://creativecommons.org/ns#"
   xmlns:rdf="http://www.w3.org/1999/02/22-rdf-syntax-ns#"
   xmlns:svg="http://www.w3.org/2000/svg"
   xmlns="http://www.w3.org/2000/svg"
   xmlns:sodipodi="http://sodipodi.sourceforge.net/DTD/sodipodi-0.dtd"
   xmlns:inkscape="http://www.inkscape.org/namespaces/inkscape"
   width="64"
   height="64"
   viewBox="0 0 16.933333 16.933334"
   version="1.1"
   id="svg1265"
   inkscape:version="0.92.2 (5c3e80d, 2017-08-06)"
   sodipodi:docname="icon-nidoo-favorites-active.svg">
  <defs
     id="defs1259">
    <clipPath
       clipPathUnits="userSpaceOnUse"
       id="clipPath442">
      <path
         d="M 0,812 H 375 V 0 H 0 Z"
         id="path440"
         inkscape:connector-curvature="0" />
    </clipPath>
    <clipPath
       clipPathUnits="userSpaceOnUse"
       id="clipPath426">
      <path
         d="M 0,812 H 375 V 0 H 0 Z"
         id="path424"
         inkscape:connector-curvature="0" />
    </clipPath>
  </defs>
  <sodipodi:namedview
     id="base"
     pagecolor="#ffffff"
     bordercolor="#666666"
     borderopacity="1.0"
     inkscape:pageopacity="0.0"
     inkscape:pageshadow="2"
     inkscape:zoom="7.9195959"
     inkscape:cx="48.658859"
     inkscape:cy="33.773718"
     inkscape:document-units="mm"
     inkscape:current-layer="layer1"
     showgrid="false"
     units="px"
     inkscape:pagecheckerboard="true"
     inkscape:showpageshadow="false"
     inkscape:window-width="1366"
     inkscape:window-height="703"
     inkscape:window-x="0"
     inkscape:window-y="0"
     inkscape:window-maximized="1" />
  <metadata
     id="metadata1262">
    <rdf:RDF>
      <cc:Work
         rdf:about="">
        <dc:format>image/svg+xml</dc:format>
        <dc:type
           rdf:resource="http://purl.org/dc/dcmitype/StillImage" />
        <dc:title></dc:title>
      </cc:Work>
    </rdf:RDF>
  </metadata>
  <g
     inkscape:label="Layer 1"
     inkscape:groupmode="layer"
     id="layer1"
     transform="translate(0,-280.06665)">
    <g
       id="g420"
       transform="matrix(0.85738397,0,0,-0.85738397,-111.07255,319.38406)"
       style="stroke-width:0.41145831;fill:#804294;fill-opacity:1">
      <g
         id="g422"
         clip-path="url(#clipPath426)"
         style="stroke-width:0.41145831;fill:#804294;fill-opacity:1">
        <g
           id="g428"
           transform="translate(135.0582,44.7553)"
           style="stroke-width:0.41145831;fill:#804294;fill-opacity:1">
          <path
             d="m 0,0 c -0.257,0 -0.531,-0.015 -0.824,-0.042 -1.724,-0.169 -3.692,-1.746 -3.937,-4.81 l 0.001,-1.056 c 0.272,-3.48 3.257,-7.206 9.124,-11.36 5.866,4.153 8.853,7.88 9.127,11.389 l -10e-4,1.058 c -0.245,3.033 -2.214,4.61 -3.938,4.779 C 6.905,0.203 5.869,-0.752 4.651,-2.203 L 4.364,-2.545 4.077,-2.203 C 2.824,-0.71 1.895,0 0,0 m 4.364,-18.185 -0.216,0.152 c -6.204,4.351 -9.362,8.307 -9.657,12.096 l -10e-4,1.116 c 0.281,3.522 2.588,5.327 4.614,5.525 2.811,0.269 4.079,-0.739 5.26,-2.089 1.182,1.351 2.45,2.364 5.261,2.089 2.025,-0.198 4.333,-2.003 4.614,-5.495 l 10e-4,-1.117 c -0.298,-3.819 -3.457,-7.776 -9.661,-12.125 z"
             style="fill:#804294;fill-opacity:1;fill-rule:nonzero;stroke:none;stroke-width:0.41145831"
             id="path430"
             inkscape:connector-curvature="0" />
        </g>
      </g>
    </g>
  </g>
</svg>
