<?xml version="1.0" encoding="UTF-8" standalone="no"?>
<!-- Created with Inkscape (http://www.inkscape.org/) -->

<svg
   xmlns:dc="http://purl.org/dc/elements/1.1/"
   xmlns:cc="http://creativecommons.org/ns#"
   xmlns:rdf="http://www.w3.org/1999/02/22-rdf-syntax-ns#"
   xmlns:svg="http://www.w3.org/2000/svg"
   xmlns="http://www.w3.org/2000/svg"
   xmlns:sodipodi="http://sodipodi.sourceforge.net/DTD/sodipodi-0.dtd"
   xmlns:inkscape="http://www.inkscape.org/namespaces/inkscape"
   width="64"
   height="64"
   viewBox="0 0 16.933333 16.933334"
   version="1.1"
   id="svg1265"
   inkscape:version="0.92.2 (5c3e80d, 2017-08-06)"
   sodipodi:docname="icon-nidoo-reservations.svg">
  <defs
     id="defs1259">
    <clipPath
       clipPathUnits="userSpaceOnUse"
       id="clipPath442">
      <path
         d="M 0,812 H 375 V 0 H 0 Z"
         id="path440"
         inkscape:connector-curvature="0" />
    </clipPath>
    <clipPath
       clipPathUnits="userSpaceOnUse"
       id="clipPath426">
      <path
         d="M 0,812 H 375 V 0 H 0 Z"
         id="path424"
         inkscape:connector-curvature="0" />
    </clipPath>
    <clipPath
       clipPathUnits="userSpaceOnUse"
       id="clipPath354">
      <path
         d="M 0,812 H 375 V 0 H 0 Z"
         id="path352"
         inkscape:connector-curvature="0" />
    </clipPath>
  </defs>
  <sodipodi:namedview
     id="base"
     pagecolor="#ffffff"
     bordercolor="#666666"
     borderopacity="1.0"
     inkscape:pageopacity="0.0"
     inkscape:pageshadow="2"
     inkscape:zoom="7.9195959"
     inkscape:cx="48.658859"
     inkscape:cy="33.773718"
     inkscape:document-units="mm"
     inkscape:current-layer="layer1"
     showgrid="false"
     units="px"
     inkscape:pagecheckerboard="true"
     inkscape:showpageshadow="false"
     inkscape:window-width="1366"
     inkscape:window-height="703"
     inkscape:window-x="0"
     inkscape:window-y="0"
     inkscape:window-maximized="1" />
  <metadata
     id="metadata1262">
    <rdf:RDF>
      <cc:Work
         rdf:about="">
        <dc:format>image/svg+xml</dc:format>
        <dc:type
           rdf:resource="http://purl.org/dc/dcmitype/StillImage" />
        <dc:title></dc:title>
      </cc:Work>
    </rdf:RDF>
  </metadata>
  <g
     inkscape:label="Layer 1"
     inkscape:groupmode="layer"
     id="layer1"
     transform="translate(0,-280.06665)">
    <g
       transform="matrix(0.93834275,0,0,-0.93834275,-210.41892,322.41453)"
       id="g348"
       style="stroke-width:0.37595832">
      <g
         id="g350"
         clip-path="url(#clipPath354)"
         style="stroke-width:0.37595832">
        <g
           id="g356"
           transform="translate(240.8126,39.9975)"
           style="stroke-width:0.37595832">
          <path
             d="m 0,0 h -15.331 v 1.894 c 0,0.638 0.502,1.163 1.141,1.163 h 0.205 V 2.715 c 0,-0.616 0.502,-1.118 1.118,-1.118 0.616,0 1.118,0.502 1.118,1.118 v 0.342 h 8.145 V 2.715 c 0,-0.616 0.501,-1.118 1.117,-1.118 0.616,0 1.118,0.502 1.118,1.118 v 0.342 h 0.205 C -0.525,3.057 0,2.532 0,1.894 Z M -0.023,-11.111 C 0,-11.772 -0.502,-12.274 -1.141,-12.274 H -14.19 c -0.639,0 -1.164,0.524 -1.164,1.163 V -0.594 H -0.023 Z M -13.347,3.354 v 0.661 c 0,0.297 0.229,0.502 0.502,0.502 0.275,0 0.502,-0.228 0.502,-0.502 V 2.691 c 0,-0.273 -0.227,-0.502 -0.502,-0.502 -0.273,0 -0.502,0.229 -0.502,0.502 z m 10.358,0 v 0.661 c 0.023,0.297 0.228,0.502 0.502,0.502 0.274,0 0.502,-0.228 0.502,-0.502 V 2.691 c 0,-0.273 -0.228,-0.502 -0.502,-0.502 -0.274,0 -0.502,0.229 -0.502,0.502 z m 1.848,0.319 h -0.206 v 0.342 c 0,0.616 -0.502,1.118 -1.117,1.118 -0.616,0 -1.118,-0.502 -1.118,-1.118 V 3.673 h -8.145 v 0.342 c 0,0.616 -0.502,1.118 -1.118,1.118 -0.616,0 -1.118,-0.502 -1.118,-1.118 V 3.673 h -0.205 c -0.98,0 -1.779,-0.799 -1.779,-1.779 v -13.028 c 0,-0.98 0.799,-1.779 1.779,-1.779 h 13.027 c 0.981,0 1.78,0.799 1.78,1.779 v 13.05 c 0,0.98 -0.799,1.757 -1.78,1.757"
             style="fill:#b9bbbd;fill-opacity:1;fill-rule:nonzero;stroke:none;stroke-width:0.37595832"
             id="path358"
             inkscape:connector-curvature="0" />
        </g>
        <g
           id="g360"
           transform="translate(228.9444,34.4916)"
           style="stroke-width:0.37595832">
          <path
             d="m 0,0 c 0,-0.021 -0.018,-0.039 -0.039,-0.039 h -1.613 c -0.022,0 -0.039,0.018 -0.039,0.039 v 1.613 c 0,0.022 0.017,0.039 0.039,0.039 h 1.613 C -0.018,1.652 0,1.635 0,1.613 Z m -0.039,2.11 h -1.613 c -0.275,0 -0.497,-0.222 -0.497,-0.497 V 0 c 0,-0.274 0.222,-0.497 0.497,-0.497 h 1.613 c 0.274,0 0.497,0.223 0.497,0.497 v 1.613 c 0,0.275 -0.223,0.497 -0.497,0.497"
             style="fill:#b9bbbd;fill-opacity:1;fill-rule:nonzero;stroke:none;stroke-width:0.37595832"
             id="path362"
             inkscape:connector-curvature="0" />
        </g>
        <g
           id="g364"
           transform="translate(235.6905,34.4916)"
           style="stroke-width:0.37595832">
          <path
             d="m 0,0 c 0,-0.021 -0.018,-0.039 -0.039,-0.039 h -1.613 c -0.022,0 -0.039,0.018 -0.039,0.039 v 1.613 c 0,0.022 0.017,0.039 0.039,0.039 h 1.613 C -0.018,1.652 0,1.635 0,1.613 Z m -0.039,2.11 h -1.613 c -0.275,0 -0.497,-0.222 -0.497,-0.497 V 0 c 0,-0.274 0.222,-0.497 0.497,-0.497 h 1.613 c 0.274,0 0.497,0.223 0.497,0.497 v 1.613 c 0,0.275 -0.223,0.497 -0.497,0.497"
             style="fill:#b9bbbd;fill-opacity:1;fill-rule:nonzero;stroke:none;stroke-width:0.37595832"
             id="path366"
             inkscape:connector-curvature="0" />
        </g>
        <g
           id="g368"
           transform="translate(239.0635,34.4916)"
           style="stroke-width:0.37595832">
          <path
             d="m 0,0 c 0,-0.021 -0.018,-0.039 -0.039,-0.039 h -1.613 c -0.022,0 -0.039,0.018 -0.039,0.039 v 1.613 c 0,0.022 0.017,0.039 0.039,0.039 h 1.613 C -0.018,1.652 0,1.635 0,1.613 Z m -0.039,2.11 h -1.613 c -0.275,0 -0.497,-0.222 -0.497,-0.497 V 0 c 0,-0.274 0.222,-0.497 0.497,-0.497 h 1.613 c 0.274,0 0.497,0.223 0.497,0.497 v 1.613 c 0,0.275 -0.223,0.497 -0.497,0.497"
             style="fill:#b9bbbd;fill-opacity:1;fill-rule:nonzero;stroke:none;stroke-width:0.37595832"
             id="path370"
             inkscape:connector-curvature="0" />
        </g>
        <g
           id="g372"
           transform="translate(232.3174,34.4916)"
           style="stroke-width:0.37595832">
          <path
             d="m 0,0 c 0,-0.021 -0.018,-0.039 -0.039,-0.039 h -1.613 c -0.022,0 -0.039,0.018 -0.039,0.039 v 1.613 c 0,0.022 0.017,0.039 0.039,0.039 h 1.613 C -0.018,1.652 0,1.635 0,1.613 Z m -0.039,2.11 h -1.613 c -0.275,0 -0.497,-0.222 -0.497,-0.497 V 0 c 0,-0.274 0.222,-0.497 0.497,-0.497 h 1.613 c 0.274,0 0.497,0.223 0.497,0.497 v 1.613 c 0,0.275 -0.223,0.497 -0.497,0.497"
             style="fill:#b9bbbd;fill-opacity:1;fill-rule:nonzero;stroke:none;stroke-width:0.37595832"
             id="path374"
             inkscape:connector-curvature="0" />
        </g>
        <g
           id="g376"
           transform="translate(228.9444,30.6625)"
           style="stroke-width:0.37595832">
          <path
             d="m 0,0 c 0,-0.021 -0.018,-0.039 -0.039,-0.039 h -1.613 c -0.022,0 -0.039,0.018 -0.039,0.039 v 1.613 c 0,0.022 0.017,0.039 0.039,0.039 h 1.613 C -0.018,1.652 0,1.635 0,1.613 Z m -0.039,2.111 h -1.613 c -0.275,0 -0.497,-0.223 -0.497,-0.498 V 0 c 0,-0.273 0.222,-0.497 0.497,-0.497 h 1.613 c 0.274,0 0.497,0.224 0.497,0.497 v 1.613 c 0,0.275 -0.223,0.498 -0.497,0.498"
             style="fill:#b9bbbd;fill-opacity:1;fill-rule:nonzero;stroke:none;stroke-width:0.37595832"
             id="path378"
             inkscape:connector-curvature="0" />
        </g>
        <g
           id="g380"
           transform="translate(232.3174,30.6625)"
           style="stroke-width:0.37595832">
          <path
             d="m 0,0 c 0,-0.021 -0.018,-0.039 -0.039,-0.039 h -1.613 c -0.022,0 -0.039,0.018 -0.039,0.039 v 1.613 c 0,0.022 0.017,0.039 0.039,0.039 h 1.613 C -0.018,1.652 0,1.635 0,1.613 Z m -0.039,2.111 h -1.613 c -0.275,0 -0.497,-0.223 -0.497,-0.498 V 0 c 0,-0.273 0.222,-0.497 0.497,-0.497 h 1.613 c 0.274,0 0.497,0.224 0.497,0.497 v 1.613 c 0,0.275 -0.223,0.498 -0.497,0.498"
             style="fill:#b9bbbd;fill-opacity:1;fill-rule:nonzero;stroke:none;stroke-width:0.37595832"
             id="path382"
             inkscape:connector-curvature="0" />
        </g>
        <g
           id="g384"
           transform="translate(235.6905,30.6625)"
           style="stroke-width:0.37595832">
          <path
             d="m 0,0 c 0,-0.021 -0.018,-0.039 -0.039,-0.039 h -1.613 c -0.022,0 -0.039,0.018 -0.039,0.039 v 1.613 c 0,0.022 0.017,0.039 0.039,0.039 h 1.613 C -0.018,1.652 0,1.635 0,1.613 Z m -0.039,2.111 h -1.613 c -0.275,0 -0.497,-0.223 -0.497,-0.498 V 0 c 0,-0.273 0.222,-0.497 0.497,-0.497 h 1.613 c 0.274,0 0.497,0.224 0.497,0.497 v 1.613 c 0,0.275 -0.223,0.498 -0.497,0.498"
             style="fill:#b9bbbd;fill-opacity:1;fill-rule:nonzero;stroke:none;stroke-width:0.37595832"
             id="path386"
             inkscape:connector-curvature="0" />
        </g>
        <g
           id="g388"
           transform="translate(239.0635,30.6625)"
           style="stroke-width:0.37595832">
          <path
             d="m 0,0 c 0,-0.021 -0.018,-0.039 -0.039,-0.039 h -1.613 c -0.022,0 -0.039,0.018 -0.039,0.039 v 1.613 c 0,0.022 0.017,0.039 0.039,0.039 h 1.613 C -0.018,1.652 0,1.635 0,1.613 Z m -0.039,2.111 h -1.613 c -0.275,0 -0.497,-0.223 -0.497,-0.498 V 0 c 0,-0.273 0.222,-0.497 0.497,-0.497 h 1.613 c 0.274,0 0.497,0.224 0.497,0.497 v 1.613 c 0,0.275 -0.223,0.498 -0.497,0.498"
             style="fill:#b9bbbd;fill-opacity:1;fill-rule:nonzero;stroke:none;stroke-width:0.37595832"
             id="path390"
             inkscape:connector-curvature="0" />
        </g>
      </g>
    </g>
  </g>
</svg>
